<svg id="SvgjsSvg1026" width="288" height="288" xmlns="http://www.w3.org/2000/svg" version="1.1" xmlns:xlink="http://www.w3.org/1999/xlink" xmlns:svgjs="http://svgjs.com/svgjs"><defs id="SvgjsDefs1027"></defs><g id="SvgjsG1028"><svg xmlns="http://www.w3.org/2000/svg" data-name="Layer 1" viewBox="0 0 122.88 118.96" width="288" height="288"><path d="M119.61,0H3.27A3.26,3.26,0,0,0,0,3.27V115.69A3.26,3.26,0,0,0,3.27,119H119.61a3.26,3.26,0,0,0,3.27-3.27V3.27A3.26,3.26,0,0,0,119.61,0ZM6.54,81.49H38.78v30.93H6.54V81.49ZM6.54,44H38.78V75H6.54V44ZM38.78,6.54V37.47H6.54V6.54Zm6.54,0h71V112.42h-71V6.54Z" fill="#d65151" class="color000 svgShape"></path></svg></g></svg>