<svg version="1.1" xmlns="http://www.w3.org/2000/svg" xmlns:xlink="http://www.w3.org/1999/xlink" width="24px" height="24px" viewBox="0,0,256,256"><g fill="#861540" fill-rule="nonzero" stroke="none" stroke-width="1" stroke-linecap="butt" stroke-linejoin="miter" stroke-miterlimit="10" stroke-dasharray="" stroke-dashoffset="0" font-family="none" font-weight="none" font-size="none" text-anchor="none" style="mix-blend-mode: normal"><g transform="scale(10.66667,10.66667)"><path d="M10.5,0c-3.02558,0 -5.5,2.47442 -5.5,5.5c0,0.61381 0.11445,1.19007 0.29297,1.71484c0.11506,0.33852 0.40201,0.58992 0.75272,0.65946c0.35071,0.06955 0.71188,-0.05332 0.94741,-0.32232c0.23554,-0.26899 0.30964,-0.64322 0.19439,-0.98168c-0.11948,-0.35123 -0.1875,-0.70412 -0.1875,-1.07031c0,-1.94442 1.55558,-3.5 3.5,-3.5c1.94442,0 3.5,1.55558 3.5,3.5c0,0.36619 -0.06802,0.71908 -0.1875,1.07031c-0.11524,0.33845 -0.04113,0.71268 0.19441,0.98166c0.23553,0.26899 0.5967,0.39186 0.9474,0.32231c0.35071,-0.06954 0.63765,-0.32093 0.75272,-0.65945c0.17852,-0.52477 0.29297,-1.10103 0.29297,-1.71484c0,-3.02558 -2.47442,-5.5 -5.5,-5.5zM10.5,4c-0.828,0 -1.5,0.672 -1.5,1.5v8.5v1.15625l-2.84375,-1.44141c-0.562,-0.285 -1.23837,-0.21908 -1.73437,0.16992c-0.756,0.593 -0.82453,1.71258 -0.14453,2.39258l4.84375,4.84375c0.563,0.563 1.32509,0.87891 2.12109,0.87891h5.75781c1.657,0 3,-1.343 3,-3v-4.83984c0,-0.962 -0.68486,-1.7888 -1.63086,-1.9668l-6.36914,-1.19336v-5.5c0,-0.828 -0.672,-1.5 -1.5,-1.5z"></path></g></g></svg>