<svg id="SvgjsSvg1016" width="288" height="288" xmlns="http://www.w3.org/2000/svg" version="1.1" xmlns:xlink="http://www.w3.org/1999/xlink" xmlns:svgjs="http://svgjs.com/svgjs"><defs id="SvgjsDefs1017"></defs><g id="SvgjsG1018"><svg xmlns="http://www.w3.org/2000/svg" fill-rule="evenodd" clip-rule="evenodd" image-rendering="optimizeQuality" shape-rendering="geometricPrecision" text-rendering="geometricPrecision" viewBox="0 0 512 425.75" width="288" height="288"><path fill-rule="nonzero" d="m105.77 362.14 60.82-58.31c2.08 10.53 5.05 20.9 8.9 31.01l-73.32 70.31a14.327 14.327 0 0 1-10.72 4.81c-7.91 0-14.32-6.41-14.32-14.32v-69.23H34.74c-9.01 0-17.24-3.54-23.42-9.22l-1.1-.99C3.93 309.9 0 301.17 0 291.67V34.74c0-9.49 3.98-18.21 10.25-24.49C16.53 3.98 25.25 0 34.74 0h325.58c9.48 0 18.22 3.94 24.51 10.24 6.25 6.25 10.21 14.95 10.21 24.5v46.68c-9.44-2.12-19.02-3.54-28.64-4.2V34.74c0-1.64-.71-3.16-1.81-4.26-1.11-1.12-2.66-1.84-4.27-1.84H34.74c-1.6 0-3.13.74-4.25 1.85-1.11 1.12-1.85 2.65-1.85 4.25v256.93c0 1.62.71 3.17 1.82 4.29l.4.4c1.05.86 2.42 1.4 3.88 1.4h56.71c7.91 0 14.32 6.42 14.32 14.32v50.06zM465.44 154.5C496.47 185.65 512 226.28 512 266.86c0 39.95-15.06 79.96-45.12 110.8l-1.41 1.54c-31.14 31.02-71.78 46.55-112.37 46.55-40.67 0-81.34-15.53-112.35-46.54-31.02-31.14-46.54-71.76-46.54-112.35 0-40.65 15.52-81.33 46.53-112.33 31.15-31.04 71.78-46.56 112.36-46.56 39.95 0 79.96 15.06 110.8 45.11l1.54 1.42zm-90.86 149.78h-43.94l-6.31 20.7h-39.59l47.24-125.53h42.45l47.04 125.53h-40.61l-6.28-20.7zm-8.21-27.16L352.67 232l-13.77 45.12h27.47zm81.39-104.91c-52.28-52.28-137.05-52.28-189.31 0-52.29 52.27-52.29 137.03 0 189.31 52.26 52.27 137.03 52.27 189.31 0 52.28-52.28 52.28-137.04 0-189.31zM98.27 128.75c-7.91 0-14.32-6.42-14.32-14.32 0-7.91 6.41-14.32 14.32-14.32h163.44a190.334 190.334 0 0 0-39.27 28.64H98.27zm0 84.73c-7.91 0-14.32-6.41-14.32-14.32 0-7.9 6.41-14.32 14.32-14.32h83.27c-4.44 9.31-8.1 18.87-10.94 28.64H98.27z" fill="#8934c3" class="color000 svgShape"></path></svg></g></svg>