<?xml version="1.0" encoding="utf-8"?><svg version="1.1" id="Layer_1" xmlns="http://www.w3.org/2000/svg" xmlns:xlink="http://www.w3.org/1999/xlink" x="0px" y="0px" viewBox="0 0 106.6 122.88" style="enable-background:new 0 0 106.6 122.88" xml:space="preserve"><g><path d="M21.61,91.11c0.93-0.41,2.01,0.01,2.42,0.94c0.41,0.93-0.01,2.01-0.94,2.42c-1.91,0.84-3.89,1.14-5.92,0.94 c-1.02-0.1-2.04-0.33-3.07-0.68c0.04,0.42,0.09,0.84,0.15,1.25c0.18,1.35,0.42,2.73,0.73,4.14c0.11,0.49,0.01,0.97-0.23,1.36 c-1.05,2.11-1.57,3.88-1.67,5.34c-0.1,1.53,0.31,2.68,1.12,3.5c0.89,0.91,2.3,1.51,4.08,1.84c2.83,0.53,6.45,0.37,10.39-0.34 c1.41-0.25,2.92-0.57,4.49-0.96c1.44-0.36,2.88-0.76,4.3-1.22c2.28-0.73,4.51-1.6,6.56-2.61c1.8-0.89,3.44-1.88,4.81-2.98 c0.79-0.63,1.95-0.5,2.58,0.29c0.63,0.79,0.5,1.95-0.29,2.58c-1.58,1.26-3.45,2.39-5.47,3.4c-1.95,0.96-4.06,1.81-6.22,2.53 c0.04,1.22-0.01,2.44-0.13,3.67c-0.17,1.7-0.47,3.37-0.91,5c-0.26,0.98-1.27,1.56-2.25,1.3c-0.98-0.26-1.56-1.27-1.3-2.25 c0.39-1.47,0.67-2.94,0.81-4.4c0.07-0.73,0.11-1.47,0.12-2.21c-0.58,0.16-1.16,0.31-1.73,0.45c-1.58,0.39-3.17,0.73-4.72,1 c-4.37,0.78-8.44,0.96-11.71,0.34c-2.49-0.47-4.56-1.4-6.01-2.88c-1.54-1.56-2.34-3.64-2.17-6.3c0.12-1.81,0.7-3.9,1.84-6.3 c-0.26-1.23-0.47-2.51-0.65-3.83c-0.2-1.5-0.33-3.02-0.38-4.56h0l0-0.03c-0.01-0.07-0.03-0.14-0.03-0.21 c-0.27-2.81-0.3-5.55-0.34-8.32l-0.01-0.77l-4.29-0.16l-0.04,0c-1.14-0.03-2.16-0.36-3.01-0.92c-0.81-0.53-1.46-1.26-1.89-2.14 C0.2,78.49-0.02,77.51,0,76.44c0.03-1.48,0.53-3.14,1.62-4.84l4.61-9.42c2.26-4.62,2.24-5.23,2.14-7.66 c-0.04-1.09-0.1-2.48-0.03-4.57c0.08-2.49,0.36-4.87,0.9-7.1c0.38-1.59,0.9-3.1,1.56-4.52l-8.4-3.66c-0.93-0.4-1.35-1.48-0.95-2.41 c0.06-0.13,0.12-0.24,0.2-0.35l0,0c20-27.26,42.6-34.77,61.7-31c11.16,2.2,21.1,8.26,28.63,16.5c7.52,8.22,12.63,18.62,14.15,29.51 c2.49,17.91-4.7,37.09-26.83,50.07c-0.2,0.11-0.4,0.19-0.61,0.23c0.01,2.73,0.18,5.37,0.49,7.94c0.62,5.07,1.81,9.82,3.49,14.28 c0.36,0.95-0.12,2-1.07,2.36s-2-0.12-2.36-1.07c-1.79-4.75-3.05-9.78-3.7-15.13c-0.65-5.33-0.7-10.99-0.08-17.03 c0.1-1.01,1-1.74,2.01-1.64c1.01,0.1,1.74,1,1.64,2.01c-0.14,1.38-0.25,2.74-0.32,4.08c19.59-12.07,25.97-29.42,23.72-45.6 c-1.41-10.15-6.19-19.86-13.21-27.54C82.27,12.2,73.02,6.56,62.65,4.51C45.25,1.08,24.63,7.84,5.99,32.24l7.99,3.49 c0.11,0.04,0.21,0.09,0.32,0.15c0.87,0.52,1.15,1.65,0.62,2.52c-0.97,1.61-1.66,3.4-2.12,5.32c-0.48,1.98-0.72,4.11-0.8,6.35 c-0.06,1.95-0.01,3.28,0.03,4.31c0.13,3.15,0.16,3.95-2.51,9.41l-4.62,9.45c-0.04,0.09-0.09,0.18-0.14,0.27 c-0.73,1.12-1.06,2.14-1.08,3c-0.01,0.46,0.08,0.87,0.24,1.2C4.04,78,4.25,78.24,4.5,78.4c0.3,0.2,0.68,0.31,1.12,0.33l0.07,0 l6.02,0.22v0c0.97,0.03,1.75,0.82,1.77,1.79c0.02,0.82,0.03,1.68,0.04,2.53c0.03,2.46,0.07,4.91,0.27,7.37 c1.29,0.61,2.54,0.99,3.75,1.11C18.93,91.9,20.29,91.69,21.61,91.11L21.61,91.11z M49.34,65.63c0-2.5,0.31-4.48,0.91-5.96 c0.6-1.47,1.71-2.94,3.32-4.37c1.61-1.43,2.69-2.6,3.22-3.5c0.53-0.9,0.8-1.85,0.8-2.85c0-3.02-1.39-4.53-4.16-4.53 c-1.31,0-2.37,0.41-3.16,1.22c-0.79,0.81-1.2,1.94-1.24,3.37h-7.75c0.04-3.41,1.14-6.07,3.3-7.99c2.16-1.92,5.11-2.89,8.85-2.89 c3.77,0,6.7,0.92,8.78,2.74c2.08,1.83,3.13,4.4,3.13,7.74c0,1.51-0.34,2.94-1.01,4.28c-0.68,1.35-1.85,2.86-3.55,4.48l-2.16,2.06 c-1.36,1.29-2.21,2.81-2.32,4.57l-0.11,1.63H49.34L49.34,65.63z M48.56,73.83c0-1.19,0.4-2.17,1.21-2.94 c0.81-0.77,1.85-1.16,3.12-1.16c1.26,0,2.3,0.38,3.11,1.16c0.81,0.77,1.21,1.75,1.21,2.94c0,1.17-0.39,2.14-1.18,2.9 c-0.79,0.76-1.84,1.15-3.13,1.15c-1.3,0-2.35-0.39-3.14-1.15C48.96,75.97,48.56,74.99,48.56,73.83L48.56,73.83z"/></g></svg>